<?xml version="1.0" encoding="utf-8"?>
<!-- Generator: Adobe Illustrator 16.2.0, SVG Export Plug-In . SVG Version: 6.00 Build 0)  -->
<!DOCTYPE svg PUBLIC "-//W3C//DTD SVG 1.1//EN" "http://www.w3.org/Graphics/SVG/1.1/DTD/svg11.dtd">
<svg version="1.1" id="Layer_1" xmlns="http://www.w3.org/2000/svg" xmlns:xlink="http://www.w3.org/1999/xlink" x="0px" y="0px"
	 width="64px" height="64px" viewBox="0 0 64 64" fill="#2ecc71" enable-background="new 0 0 64 64" xml:space="preserve">
<path d="M57.395,51.614L42.108,36.339c-0.819-0.82-2.152-0.82-2.972,0l-0.24,0.238l-3.386-3.385
	c2.465-2.97,3.808-6.671,3.808-10.579c0-4.437-1.729-8.608-4.868-11.746C31.311,7.73,27.137,6,22.697,6
	c-4.439,0-8.613,1.73-11.75,4.868c-3.139,3.138-4.869,7.309-4.869,11.746s1.73,8.611,4.869,11.748
	c3.137,3.139,7.311,4.865,11.751,4.865c3.909,0,7.611-1.344,10.584-3.807l3.387,3.385l-0.241,0.24c-0.821,0.822-0.821,2.15,0,2.971
	l15.287,15.278c0.409,0.408,0.947,0.615,1.484,0.615c0.54,0,1.076-0.207,1.486-0.615l2.709-2.707
	C58.214,53.768,58.214,52.436,57.395,51.614z M22.698,32.923c-2.755,0-5.345-1.072-7.294-3.017c-1.948-1.949-3.02-4.539-3.02-7.292
	c0-2.754,1.072-5.343,3.02-7.29c1.949-1.945,4.539-3.021,7.292-3.021c2.756,0,5.347,1.075,7.294,3.021
	c1.949,1.949,3.022,4.539,3.022,7.29c0,2.753-1.073,5.343-3.021,7.292C28.043,31.851,25.454,32.923,22.698,32.923z"/>
</svg>
