<?xml version="1.0" encoding="utf-8"?>
<!-- Generator: Adobe Illustrator 16.2.0, SVG Export Plug-In . SVG Version: 6.00 Build 0)  -->
<!DOCTYPE svg PUBLIC "-//W3C//DTD SVG 1.1//EN" "http://www.w3.org/Graphics/SVG/1.1/DTD/svg11.dtd">
<svg version="1.1" id="Layer_1" xmlns="http://www.w3.org/2000/svg" xmlns:xlink="http://www.w3.org/1999/xlink" x="0px" y="0px"
	 width="64px" height="64px" viewBox="0 0 64 64" enable-background="new 0 0 64 64" xml:space="preserve">
<g>
	<g>
		<path fill="#4AB7F2" d="M14.583,9.782V7.07c0-0.596-0.488-1.08-1.091-1.08c-0.604,0-1.093,0.484-1.093,1.08v2.712
			c-3.656,0.526-6.476,3.636-6.476,7.393c0,3.756,2.819,6.865,6.476,7.392v32.352c0,0.595,0.489,1.079,1.093,1.079
			c0.603,0,1.091-0.484,1.091-1.079V24.567c3.657-0.527,6.476-3.636,6.476-7.392C21.06,13.418,18.24,10.309,14.583,9.782z
			 M13.492,22.493c-2.968,0-5.383-2.386-5.383-5.318c0-2.933,2.416-5.319,5.383-5.319s5.382,2.386,5.382,5.319
			C18.874,20.107,16.46,22.493,13.492,22.493z M33.007,36.921V7.07c0-0.596-0.489-1.08-1.093-1.08c-0.603,0-1.093,0.484-1.093,1.08
			v29.851c-3.655,0.525-6.475,3.636-6.475,7.391c0,3.757,2.819,6.867,6.475,7.395v5.213c0,0.595,0.49,1.079,1.093,1.079
			c0.604,0,1.093-0.484,1.093-1.079v-5.213c3.656-0.527,6.476-3.638,6.476-7.395C39.482,40.557,36.663,37.446,33.007,36.921z
			 M31.914,49.632c-2.967,0-5.381-2.388-5.381-5.32c0-2.932,2.414-5.318,5.381-5.318c2.968,0,5.383,2.387,5.383,5.318
			C37.297,47.244,34.882,49.632,31.914,49.632z M51.431,17.536V7.07c0-0.596-0.488-1.08-1.093-1.08c-0.604,0-1.093,0.484-1.093,1.08
			v10.465c-3.655,0.527-6.476,3.636-6.476,7.392c0,3.757,2.82,6.866,6.476,7.393v24.599c0,0.595,0.489,1.079,1.093,1.079
			c0.604,0,1.093-0.484,1.093-1.079V32.32c3.654-0.526,6.475-3.636,6.475-7.393C57.905,21.172,55.085,18.063,51.431,17.536z
			 M50.338,30.247c-2.968,0-5.382-2.387-5.382-5.319s2.414-5.318,5.382-5.318c2.967,0,5.381,2.386,5.381,5.318
			S53.305,30.247,50.338,30.247z"/>
	</g>
</g>
</svg>
