<?xml version="1.0" encoding="utf-8"?>
<!-- Generator: Adobe Illustrator 16.2.0, SVG Export Plug-In . SVG Version: 6.00 Build 0)  -->
<!DOCTYPE svg PUBLIC "-//W3C//DTD SVG 1.1//EN" "http://www.w3.org/Graphics/SVG/1.1/DTD/svg11.dtd">
<svg version="1.1" id="Layer_1" xmlns="http://www.w3.org/2000/svg" xmlns:xlink="http://www.w3.org/1999/xlink" x="0px" y="0px"
	 width="64px" height="64px" viewBox="0 0 64 64" enable-background="new 0 0 64 64" xml:space="preserve">
<g>
	<g>
		<path fill="#2ECC71" d="M18.18,18.18H8.493c-1.394,0-2.528,1.138-2.528,2.537v32.489c0,1.399,1.134,2.539,2.528,2.539h9.687
			c1.394,0,2.526-1.14,2.526-2.539V20.716C20.706,19.317,19.574,18.18,18.18,18.18z M18.598,53.205c0,0.231-0.188,0.421-0.417,0.421
			H8.493c-0.23,0-0.419-0.189-0.419-0.421V20.716c0-0.23,0.188-0.419,0.419-0.419h9.687c0.23,0,0.417,0.189,0.417,0.419V53.205z
			 M36.809,29.473h-9.687c-1.39,0-2.522,1.137-2.522,2.537v21.195c0,1.399,1.132,2.539,2.522,2.539h9.687
			c1.396,0,2.528-1.14,2.528-2.539V32.01C39.337,30.61,38.204,29.473,36.809,29.473z M37.228,53.205
			c0,0.231-0.188,0.421-0.419,0.421h-9.687c-0.228,0-0.413-0.189-0.413-0.421V32.01c0-0.231,0.186-0.419,0.413-0.419h9.687
			c0.23,0,0.419,0.188,0.419,0.419V53.205z M55.442,7.995h-9.688c-1.394,0-2.526,1.139-2.526,2.538v42.672
			c0,1.399,1.133,2.539,2.526,2.539h9.688c1.39,0,2.523-1.14,2.523-2.539V10.533C57.966,9.134,56.832,7.995,55.442,7.995z
			 M55.857,53.205c0,0.231-0.188,0.421-0.415,0.421h-9.688c-0.229,0-0.417-0.189-0.417-0.421V10.533
			c0-0.231,0.188-0.419,0.417-0.419h9.688c0.228,0,0.415,0.188,0.415,0.419V53.205z"/>
	</g>
</g>
</svg>
