<?xml version="1.0" encoding="utf-8"?>
<!-- Generated by IcoMoon.io -->
<!DOCTYPE svg PUBLIC "-//W3C//DTD SVG 1.1//EN" "http://www.w3.org/Graphics/SVG/1.1/DTD/svg11.dtd">
<svg version="1.1" xmlns="http://www.w3.org/2000/svg" xmlns:xlink="http://www.w3.org/1999/xlink" width="1024" height="1024" viewBox="0 0 1024 1024" fill="#4ab7f2"><g id="icomoon-ignore">
</g>
<path d="M218.224 566.56c-53.312-26.224-87.744-82.080-87.744-142.272 0-87.088 69.664-157.968 155.28-157.968h285.056c85.648 0 155.264 70.88 155.264 157.968 0 87.072-69.632 157.936-155.264 157.936h-218.336c-9.296 0-16.832 7.664-16.832 17.152 0 9.456 7.536 17.136 16.832 17.136h218.336c104.224 0 188.992-86.24 188.992-192.24s-84.768-192.24-188.992-192.24h-285.056c-104.208 0-188.976 86.24-188.976 192.24 0 73.232 41.92 141.216 106.768 173.12 8.448 4.176 18.464 0.576 22.512-7.952 4.048-8.48 0.544-18.736-7.84-22.88zM818.832 424.88c-8.512-4-18.464-0.272-22.384 8.352-3.904 8.576-0.24 18.768 8.208 22.752 54.72 25.792 90.080 82.064 90.080 143.392 0 87.088-69.664 157.952-155.28 157.952h-285.088c-85.6 0-155.248-70.864-155.248-157.952s69.648-157.952 155.248-157.952h218.256c9.328 0 16.864-7.664 16.864-17.136s-7.536-17.152-16.864-17.152h-218.256c-104.176 0-188.944 86.24-188.944 192.24s84.768 192.24 188.944 192.24h285.072c104.192 0 188.992-86.24 188.992-192.24-0.016-74.608-43.040-143.104-109.6-174.496z"></path>
</svg>
